<svg xmlns="http://www.w3.org/2000/svg" viewBox="0 0 900 1200">
<defs>
  <linearGradient id="bg" x1="0" y1="0" x2="1" y2="1"><stop offset="0" stop-color="#f0f2f3"/><stop offset="1" stop-color="#d9dfe4"/></linearGradient>
  <linearGradient id="mat" x1="0" y1="0" x2="1" y2="1"><stop offset="0" stop-color="#f6d200"/><stop offset="1" stop-color="#c6a403"/></linearGradient>
</defs>
<rect width="900" height="1200" fill="url(#bg)"/>
<rect x="0" y="790" width="900" height="410" fill="#c7d0d7"/>
<rect x="110" y="430" width="680" height="360" rx="36" fill="#2b2f34"/>
<rect x="140" y="460" width="620" height="300" rx="24" fill="url(#mat)"/>
<rect x="176" y="495" width="548" height="230" rx="18" fill="#f6dc55" opacity="0.48"/>
<g fill="#ffffff" opacity="0.8">
  <rect x="92" y="180" width="210" height="18" rx="9"/>
  <rect x="608" y="220" width="170" height="18" rx="9"/>
  <rect x="640" y="260" width="138" height="14" rx="7"/>
</g>
<g opacity="0.18">
  <circle cx="730" cy="130" r="90" fill="#111111"/>
  <circle cx="150" cy="120" r="58" fill="#111111"/>
</g>
<g fill="#4b5560">
  <rect x="112" y="430" width="680" height="28" rx="14"/>
  <rect x="112" y="762" width="680" height="28" rx="14"/>
</g>
<text x="70" y="1090" fill="#111111" font-family="Inter, Arial, sans-serif" font-size="58" font-weight="800">Борцовская зона</text>
<text x="72" y="1144" fill="#756100" font-family="Inter, Arial, sans-serif" font-size="28" font-weight="700">Маты для BJJ, борьбы и ММА</text>
</svg>