<svg xmlns="http://www.w3.org/2000/svg" viewBox="0 0 900 1200">
<defs>
  <linearGradient id="bg" x1="0" y1="0" x2="1" y2="1"><stop offset="0" stop-color="#2a2a2a"/><stop offset="1" stop-color="#111111"/></linearGradient>
  <linearGradient id="floor" x1="0" y1="0" x2="1" y2="0"><stop offset="0" stop-color="#343434"/><stop offset="1" stop-color="#1d1d1d"/></linearGradient>
</defs>
<rect width="900" height="1200" fill="url(#bg)"/>
<rect x="0" y="760" width="900" height="440" fill="url(#floor)"/>
<g opacity="0.25">
  <circle cx="150" cy="120" r="90" fill="#ffd400"/>
  <circle cx="760" cy="190" r="70" fill="#ffd400"/>
</g>
<g>
  <rect x="125" y="470" width="650" height="260" rx="30" fill="#e7eef5"/>
  <rect x="160" y="505" width="580" height="190" rx="16" fill="#cfd8e3"/>
  <rect x="160" y="505" width="580" height="60" fill="#d71f1f" opacity="0.22"/>
  <g stroke="#ffffff" stroke-width="9" fill="none" opacity="0.95">
    <line x1="145" y1="470" x2="785" y2="470"/>
    <line x1="145" y1="520" x2="785" y2="520"/>
    <line x1="145" y1="570" x2="785" y2="570"/>
  </g>
  <g fill="#111111">
    <rect x="118" y="450" width="18" height="320" rx="9"/>
    <rect x="764" y="450" width="18" height="320" rx="9"/>
    <rect x="118" y="450" width="50" height="18" rx="9"/>
    <rect x="732" y="450" width="50" height="18" rx="9"/>
    <rect x="118" y="752" width="50" height="18" rx="9"/>
    <rect x="732" y="752" width="50" height="18" rx="9"/>
  </g>
</g>
<g fill="#ffffff" opacity="0.8">
  <rect x="75" y="275" width="180" height="18" rx="9"/>
  <rect x="645" y="300" width="165" height="18" rx="9"/>
  <rect x="680" y="340" width="130" height="14" rx="7"/>
</g>
<text x="70" y="1090" fill="#ffffff" font-family="Inter, Arial, sans-serif" font-size="62" font-weight="800">Ринговая зона</text>
<text x="72" y="1144" fill="#ffd400" font-family="Inter, Arial, sans-serif" font-size="28" font-weight="700">Отработка ударной техники и спарринги</text>
</svg>